<?xml version="1.0" encoding="UTF-8" standalone="no"?>
<!DOCTYPE svg PUBLIC "-//W3C//DTD SVG 1.1//EN"
 "http://www.w3.org/Graphics/SVG/1.1/DTD/svg11.dtd">
<!-- Generated by graphviz version 2.38.0 (20140413.2041)
 -->
<!-- Title: tasks Pages: 1 -->
<svg width="1014pt" height="314pt"
 viewBox="0.00 0.00 1014.00 314.00" xmlns="http://www.w3.org/2000/svg" xmlns:xlink="http://www.w3.org/1999/xlink">
<g id="graph0" class="graph" transform="scale(1 1) rotate(0) translate(4 310)">
<title>tasks</title>
<polygon fill="white" stroke="none" points="-4,4 -4,-310 1010,-310 1010,4 -4,4"/>
<!-- build -->
<g id="node1" class="node"><title>build</title>
<polygon fill="lightgreen" stroke="black" points="96.5,-144 42.5,-144 42.5,-108 96.5,-108 96.5,-144"/>
<text text-anchor="middle" x="69.5" y="-122.3" font-family="Times,serif" font-size="14.00">build</text>
</g>
<!-- assemble -->
<g id="node2" class="node"><title>assemble</title>
<polygon fill="lightgreen" stroke="black" points="306,-90 239,-90 239,-54 306,-54 306,-90"/>
<text text-anchor="middle" x="272.5" y="-68.3" font-family="Times,serif" font-size="14.00">assemble</text>
</g>
<!-- build&#45;&gt;assemble -->
<g id="edge1" class="edge"><title>build&#45;&gt;assemble</title>
<path fill="none" stroke="black" d="M96.7772,-118.94C130.425,-109.901 189.153,-94.123 229.15,-83.3777"/>
<polygon fill="black" stroke="black" points="230.139,-86.7362 238.888,-80.7614 228.322,-79.9759 230.139,-86.7362"/>
</g>
<!-- check -->
<g id="node8" class="node"><title>check</title>
<polygon fill="lightgreen" stroke="black" points="299.5,-198 245.5,-198 245.5,-162 299.5,-162 299.5,-198"/>
<text text-anchor="middle" x="272.5" y="-176.3" font-family="Times,serif" font-size="14.00">check</text>
</g>
<!-- build&#45;&gt;check -->
<g id="edge7" class="edge"><title>build&#45;&gt;check</title>
<path fill="none" stroke="black" d="M96.7772,-133.06C132.214,-142.58 195.468,-159.573 235.363,-170.291"/>
<polygon fill="black" stroke="black" points="234.651,-173.724 245.216,-172.939 236.467,-166.964 234.651,-173.724"/>
</g>
<!-- jar -->
<g id="node3" class="node"><title>jar</title>
<polygon fill="lightgreen" stroke="black" points="471.5,-90 417.5,-90 417.5,-54 471.5,-54 471.5,-90"/>
<text text-anchor="middle" x="444.5" y="-68.3" font-family="Times,serif" font-size="14.00">jar</text>
</g>
<!-- assemble&#45;&gt;jar -->
<g id="edge2" class="edge"><title>assemble&#45;&gt;jar</title>
<path fill="none" stroke="black" d="M306.278,-72C335.277,-72 377.518,-72 407.46,-72"/>
<polygon fill="black" stroke="black" points="407.496,-75.5001 417.496,-72 407.496,-68.5001 407.496,-75.5001"/>
</g>
<!-- classes -->
<g id="node7" class="node"><title>classes</title>
<polygon fill="lightgreen" stroke="black" points="857,-136 803,-136 803,-100 857,-100 857,-136"/>
<text text-anchor="middle" x="830" y="-114.3" font-family="Times,serif" font-size="14.00">classes</text>
</g>
<!-- jar&#45;&gt;classes -->
<g id="edge6" class="edge"><title>jar&#45;&gt;classes</title>
<path fill="none" stroke="black" d="M471.789,-70.4777C527.237,-67.933 659.875,-65.3661 767,-91 775.877,-93.1241 785.08,-96.448 793.592,-100.047"/>
<polygon fill="black" stroke="black" points="792.297,-103.302 802.856,-104.179 795.148,-96.9089 792.297,-103.302"/>
</g>
<!-- installDist -->
<g id="node4" class="node"><title>installDist</title>
<polygon fill="lightgreen" stroke="black" points="308.5,-36 236.5,-36 236.5,-0 308.5,-0 308.5,-36"/>
<text text-anchor="middle" x="272.5" y="-14.3" font-family="Times,serif" font-size="14.00">installDist</text>
</g>
<!-- installDist&#45;&gt;jar -->
<g id="edge4" class="edge"><title>installDist&#45;&gt;jar</title>
<path fill="none" stroke="black" d="M308.539,-27.0863C326.94,-32.0385 349.803,-38.4763 370,-45 382.431,-49.0152 395.885,-53.8204 407.844,-58.2567"/>
<polygon fill="black" stroke="black" points="406.89,-61.6368 417.482,-61.871 409.348,-55.0825 406.89,-61.6368"/>
</g>
<!-- startScripts -->
<g id="node5" class="node"><title>startScripts</title>
<polygon fill="lightgreen" stroke="black" points="483,-36 406,-36 406,-0 483,-0 483,-36"/>
<text text-anchor="middle" x="444.5" y="-14.3" font-family="Times,serif" font-size="14.00">startScripts</text>
</g>
<!-- installDist&#45;&gt;startScripts -->
<g id="edge3" class="edge"><title>installDist&#45;&gt;startScripts</title>
<path fill="none" stroke="black" d="M308.724,-18C333.905,-18 368.085,-18 395.723,-18"/>
<polygon fill="black" stroke="black" points="395.963,-21.5001 405.963,-18 395.963,-14.5001 395.963,-21.5001"/>
</g>
<!-- uploadArchives -->
<g id="node6" class="node"><title>uploadArchives</title>
<polygon fill="lightgreen" stroke="black" points="323.5,-144 221.5,-144 221.5,-108 323.5,-108 323.5,-144"/>
<text text-anchor="middle" x="272.5" y="-122.3" font-family="Times,serif" font-size="14.00">uploadArchives</text>
</g>
<!-- uploadArchives&#45;&gt;jar -->
<g id="edge5" class="edge"><title>uploadArchives&#45;&gt;jar</title>
<path fill="none" stroke="black" d="M323.811,-112.736C338.751,-108.578 355.101,-103.813 370,-99 382.431,-94.9848 395.885,-90.1796 407.844,-85.7433"/>
<polygon fill="black" stroke="black" points="409.348,-88.9175 417.482,-82.129 406.89,-82.3632 409.348,-88.9175"/>
</g>
<!-- compileJava -->
<g id="node13" class="node"><title>compileJava</title>
<polygon fill="lightgreen" stroke="black" points="992,-163 907,-163 907,-127 992,-127 992,-163"/>
<text text-anchor="middle" x="949.5" y="-141.3" font-family="Times,serif" font-size="14.00">compileJava</text>
</g>
<!-- classes&#45;&gt;compileJava -->
<g id="edge14" class="edge"><title>classes&#45;&gt;compileJava</title>
<path fill="none" stroke="black" d="M857.077,-123.992C868.829,-126.693 883.137,-129.981 896.913,-133.146"/>
<polygon fill="black" stroke="black" points="896.275,-136.591 906.805,-135.419 897.843,-129.768 896.275,-136.591"/>
</g>
<!-- processResources -->
<g id="node14" class="node"><title>processResources</title>
<polygon fill="lightgreen" stroke="black" points="1006,-109 893,-109 893,-73 1006,-73 1006,-109"/>
<text text-anchor="middle" x="949.5" y="-87.3" font-family="Times,serif" font-size="14.00">processResources</text>
</g>
<!-- classes&#45;&gt;processResources -->
<g id="edge15" class="edge"><title>classes&#45;&gt;processResources</title>
<path fill="none" stroke="black" d="M857.077,-112.008C864.823,-110.228 873.679,-108.193 882.762,-106.106"/>
<polygon fill="black" stroke="black" points="883.702,-109.481 892.664,-103.83 882.134,-102.659 883.702,-109.481"/>
</g>
<!-- test -->
<g id="node9" class="node"><title>test</title>
<polygon fill="lightgreen" stroke="black" points="471.5,-198 417.5,-198 417.5,-162 471.5,-162 471.5,-198"/>
<text text-anchor="middle" x="444.5" y="-176.3" font-family="Times,serif" font-size="14.00">test</text>
</g>
<!-- check&#45;&gt;test -->
<g id="edge8" class="edge"><title>check&#45;&gt;test</title>
<path fill="none" stroke="black" d="M299.69,-180C328.392,-180 374.64,-180 406.916,-180"/>
<polygon fill="black" stroke="black" points="407.28,-183.5 417.28,-180 407.28,-176.5 407.28,-183.5"/>
</g>
<!-- test&#45;&gt;classes -->
<g id="edge9" class="edge"><title>test&#45;&gt;classes</title>
<path fill="none" stroke="black" d="M471.811,-189.884C529.001,-209.655 667.487,-248.148 767,-199 789.548,-187.864 806.159,-164.158 816.481,-145.254"/>
<polygon fill="black" stroke="black" points="819.694,-146.659 821.172,-136.168 813.475,-143.448 819.694,-146.659"/>
</g>
<!-- testClasses -->
<g id="node10" class="node"><title>testClasses</title>
<polygon fill="lightgreen" stroke="black" points="595,-190 519,-190 519,-154 595,-154 595,-190"/>
<text text-anchor="middle" x="557" y="-168.3" font-family="Times,serif" font-size="14.00">testClasses</text>
</g>
<!-- test&#45;&gt;testClasses -->
<g id="edge10" class="edge"><title>test&#45;&gt;testClasses</title>
<path fill="none" stroke="black" d="M471.687,-178.104C482.766,-177.302 496.024,-176.342 508.711,-175.424"/>
<polygon fill="black" stroke="black" points="508.989,-178.913 518.71,-174.7 508.483,-171.931 508.989,-178.913"/>
</g>
<!-- compileTestJava -->
<g id="node11" class="node"><title>compileTestJava</title>
<polygon fill="lightgreen" stroke="black" points="753,-136 645,-136 645,-100 753,-100 753,-136"/>
<text text-anchor="middle" x="699" y="-114.3" font-family="Times,serif" font-size="14.00">compileTestJava</text>
</g>
<!-- testClasses&#45;&gt;compileTestJava -->
<g id="edge11" class="edge"><title>testClasses&#45;&gt;compileTestJava</title>
<path fill="none" stroke="black" d="M595.15,-157.671C609.372,-152.185 625.933,-145.797 641.558,-139.771"/>
<polygon fill="black" stroke="black" points="643.065,-142.941 651.136,-136.076 640.546,-136.41 643.065,-142.941"/>
</g>
<!-- processTestResources -->
<g id="node12" class="node"><title>processTestResources</title>
<polygon fill="lightgreen" stroke="black" points="767,-190 631,-190 631,-154 767,-154 767,-190"/>
<text text-anchor="middle" x="699" y="-168.3" font-family="Times,serif" font-size="14.00">processTestResources</text>
</g>
<!-- testClasses&#45;&gt;processTestResources -->
<g id="edge12" class="edge"><title>testClasses&#45;&gt;processTestResources</title>
<path fill="none" stroke="black" d="M595.15,-172C603.154,-172 611.9,-172 620.803,-172"/>
<polygon fill="black" stroke="black" points="620.89,-175.5 630.89,-172 620.89,-168.5 620.89,-175.5"/>
</g>
<!-- compileTestJava&#45;&gt;classes -->
<g id="edge13" class="edge"><title>compileTestJava&#45;&gt;classes</title>
<path fill="none" stroke="black" d="M753.214,-118C766.419,-118 780.276,-118 792.476,-118"/>
<polygon fill="black" stroke="black" points="792.713,-121.5 802.713,-118 792.713,-114.5 792.713,-121.5"/>
</g>
<!-- integrationTestClasses -->
<g id="node15" class="node"><title>integrationTestClasses</title>
<polygon fill="orange" stroke="black" points="139,-279 0,-279 0,-243 139,-243 139,-279"/>
<text text-anchor="middle" x="69.5" y="-257.3" font-family="Times,serif" font-size="14.00">integrationTestClasses</text>
</g>
<!-- compileIntegrationTestJava -->
<g id="node16" class="node"><title>compileIntegrationTestJava</title>
<polygon fill="orange" stroke="black" points="356,-306 189,-306 189,-270 356,-270 356,-306"/>
<text text-anchor="middle" x="272.5" y="-284.3" font-family="Times,serif" font-size="14.00">compileIntegrationTestJava</text>
</g>
<!-- integrationTestClasses&#45;&gt;compileIntegrationTestJava -->
<g id="edge16" class="edge"><title>integrationTestClasses&#45;&gt;compileIntegrationTestJava</title>
<path fill="none" stroke="black" d="M139.111,-270.216C151.889,-271.933 165.435,-273.752 178.795,-275.547"/>
<polygon fill="black" stroke="black" points="178.584,-279.05 188.96,-276.913 179.516,-272.112 178.584,-279.05"/>
</g>
<!-- processIntegrationTestResources -->
<g id="node17" class="node"><title>processIntegrationTestResources</title>
<polygon fill="orange" stroke="black" points="370,-252 175,-252 175,-216 370,-216 370,-252"/>
<text text-anchor="middle" x="272.5" y="-230.3" font-family="Times,serif" font-size="14.00">processIntegrationTestResources</text>
</g>
<!-- integrationTestClasses&#45;&gt;processIntegrationTestResources -->
<g id="edge17" class="edge"><title>integrationTestClasses&#45;&gt;processIntegrationTestResources</title>
<path fill="none" stroke="black" d="M139.111,-251.784C147.366,-250.675 155.943,-249.523 164.582,-248.362"/>
<polygon fill="black" stroke="black" points="165.293,-251.798 174.738,-246.998 164.361,-244.86 165.293,-251.798"/>
</g>
</g>
</svg>
