<?xml version="1.0" encoding="UTF-8" standalone="no"?>
<!DOCTYPE svg PUBLIC "-//W3C//DTD SVG 1.1//EN"
 "http://www.w3.org/Graphics/SVG/1.1/DTD/svg11.dtd">
<!-- Generated by graphviz version 2.38.0 (20140413.2041)
 -->
<!-- Title: tasks Pages: 1 -->
<svg width="944pt" height="373pt"
 viewBox="0.00 0.00 944.00 373.00" xmlns="http://www.w3.org/2000/svg" xmlns:xlink="http://www.w3.org/1999/xlink">
<g id="graph0" class="graph" transform="scale(1 1) rotate(0) translate(4 369)">
<title>tasks</title>
<polygon fill="white" stroke="none" points="-4,4 -4,-369 940,-369 940,4 -4,4"/>
<!-- build -->
<g id="node1" class="node"><title>build</title>
<polygon fill="lightgreen" stroke="black" points="54,-313 0,-313 0,-277 54,-277 54,-313"/>
<text text-anchor="middle" x="27" y="-291.3" font-family="Times,serif" font-size="14.00">build</text>
</g>
<!-- assemble -->
<g id="node2" class="node"><title>assemble</title>
<polygon fill="lightgreen" stroke="black" points="157,-365 90,-365 90,-329 157,-329 157,-365"/>
<text text-anchor="middle" x="123.5" y="-343.3" font-family="Times,serif" font-size="14.00">assemble</text>
</g>
<!-- build&#45;&gt;assemble -->
<g id="edge1" class="edge"><title>build&#45;&gt;assemble</title>
<path fill="none" stroke="black" d="M54.0727,-309.347C62.3494,-313.901 71.7192,-319.057 80.8105,-324.06"/>
<polygon fill="black" stroke="black" points="79.3097,-327.229 89.7582,-328.983 82.6844,-321.096 79.3097,-327.229"/>
</g>
<!-- check -->
<g id="node3" class="node"><title>check</title>
<polygon fill="lightgreen" stroke="black" points="150.5,-261 96.5,-261 96.5,-225 150.5,-225 150.5,-261"/>
<text text-anchor="middle" x="123.5" y="-239.3" font-family="Times,serif" font-size="14.00">check</text>
</g>
<!-- build&#45;&gt;check -->
<g id="edge2" class="edge"><title>build&#45;&gt;check</title>
<path fill="none" stroke="black" d="M54.0727,-280.653C64.3161,-275.017 76.2339,-268.459 87.2259,-262.41"/>
<polygon fill="black" stroke="black" points="89.1105,-265.368 96.1843,-257.481 85.7358,-259.235 89.1105,-265.368"/>
</g>
<!-- jar -->
<g id="node9" class="node"><title>jar</title>
<polygon fill="lightgreen" stroke="black" points="626.5,-344 572.5,-344 572.5,-308 626.5,-308 626.5,-344"/>
<text text-anchor="middle" x="599.5" y="-322.3" font-family="Times,serif" font-size="14.00">jar</text>
</g>
<!-- assemble&#45;&gt;jar -->
<g id="edge9" class="edge"><title>assemble&#45;&gt;jar</title>
<path fill="none" stroke="black" d="M157.095,-350.121C217.973,-355.384 353.019,-364.394 466,-353 498.993,-349.673 535.915,-341.797 562.387,-335.406"/>
<polygon fill="black" stroke="black" points="563.47,-338.744 572.343,-332.953 561.796,-331.947 563.47,-338.744"/>
</g>
<!-- test -->
<g id="node4" class="node"><title>test</title>
<polygon fill="lightgreen" stroke="black" points="269,-136 215,-136 215,-100 269,-100 269,-136"/>
<text text-anchor="middle" x="242" y="-114.3" font-family="Times,serif" font-size="14.00">test</text>
</g>
<!-- check&#45;&gt;test -->
<g id="edge3" class="edge"><title>check&#45;&gt;test</title>
<path fill="none" stroke="black" d="M141.44,-224.824C161.371,-203.439 194.595,-167.791 217.129,-143.613"/>
<polygon fill="black" stroke="black" points="219.782,-145.9 224.039,-136.198 214.661,-141.127 219.782,-145.9"/>
</g>
<!-- integrationTest -->
<g id="node18" class="node"><title>integrationTest</title>
<polygon fill="lightblue" stroke="black" points="291,-261 193,-261 193,-225 291,-225 291,-261"/>
<text text-anchor="middle" x="242" y="-239.3" font-family="Times,serif" font-size="14.00">integrationTest</text>
</g>
<!-- check&#45;&gt;integrationTest -->
<g id="edge20" class="edge"><title>check&#45;&gt;integrationTest</title>
<path fill="none" stroke="black" d="M150.645,-243C160.198,-243 171.427,-243 182.661,-243"/>
<polygon fill="black" stroke="black" points="182.931,-246.5 192.931,-243 182.931,-239.5 182.931,-246.5"/>
</g>
<!-- classes -->
<g id="node5" class="node"><title>classes</title>
<polygon fill="lightgreen" stroke="black" points="787,-136 733,-136 733,-100 787,-100 787,-136"/>
<text text-anchor="middle" x="760" y="-114.3" font-family="Times,serif" font-size="14.00">classes</text>
</g>
<!-- test&#45;&gt;classes -->
<g id="edge4" class="edge"><title>test&#45;&gt;classes</title>
<path fill="none" stroke="black" d="M269.298,-118C354.702,-118 624.418,-118 722.711,-118"/>
<polygon fill="black" stroke="black" points="722.755,-121.5 732.755,-118 722.755,-114.5 722.755,-121.5"/>
</g>
<!-- testClasses -->
<g id="node6" class="node"><title>testClasses</title>
<polygon fill="lightgreen" stroke="black" points="434.5,-90 358.5,-90 358.5,-54 434.5,-54 434.5,-90"/>
<text text-anchor="middle" x="396.5" y="-68.3" font-family="Times,serif" font-size="14.00">testClasses</text>
</g>
<!-- test&#45;&gt;testClasses -->
<g id="edge5" class="edge"><title>test&#45;&gt;testClasses</title>
<path fill="none" stroke="black" d="M269.216,-110.092C290.963,-103.532 322.434,-94.0397 348.517,-86.1719"/>
<polygon fill="black" stroke="black" points="349.656,-89.4843 358.219,-83.2455 347.634,-82.7826 349.656,-89.4843"/>
</g>
<!-- compileJava -->
<g id="node11" class="node"><title>compileJava</title>
<polygon fill="lightgreen" stroke="black" points="922,-163 837,-163 837,-127 922,-127 922,-163"/>
<text text-anchor="middle" x="879.5" y="-141.3" font-family="Times,serif" font-size="14.00">compileJava</text>
</g>
<!-- classes&#45;&gt;compileJava -->
<g id="edge12" class="edge"><title>classes&#45;&gt;compileJava</title>
<path fill="none" stroke="black" d="M787.077,-123.992C798.829,-126.693 813.137,-129.981 826.913,-133.146"/>
<polygon fill="black" stroke="black" points="826.275,-136.591 836.805,-135.419 827.843,-129.768 826.275,-136.591"/>
</g>
<!-- processResources -->
<g id="node12" class="node"><title>processResources</title>
<polygon fill="lightgreen" stroke="black" points="936,-109 823,-109 823,-73 936,-73 936,-109"/>
<text text-anchor="middle" x="879.5" y="-87.3" font-family="Times,serif" font-size="14.00">processResources</text>
</g>
<!-- classes&#45;&gt;processResources -->
<g id="edge13" class="edge"><title>classes&#45;&gt;processResources</title>
<path fill="none" stroke="black" d="M787.077,-112.008C794.823,-110.228 803.679,-108.193 812.762,-106.106"/>
<polygon fill="black" stroke="black" points="813.702,-109.481 822.664,-103.83 812.134,-102.659 813.702,-109.481"/>
</g>
<!-- compileTestJava -->
<g id="node7" class="node"><title>compileTestJava</title>
<polygon fill="lightgreen" stroke="black" points="653.5,-90 545.5,-90 545.5,-54 653.5,-54 653.5,-90"/>
<text text-anchor="middle" x="599.5" y="-68.3" font-family="Times,serif" font-size="14.00">compileTestJava</text>
</g>
<!-- testClasses&#45;&gt;compileTestJava -->
<g id="edge6" class="edge"><title>testClasses&#45;&gt;compileTestJava</title>
<path fill="none" stroke="black" d="M434.835,-72C463.027,-72 502.369,-72 535.415,-72"/>
<polygon fill="black" stroke="black" points="535.449,-75.5001 545.449,-72 535.449,-68.5001 535.449,-75.5001"/>
</g>
<!-- processTestResources -->
<g id="node8" class="node"><title>processTestResources</title>
<polygon fill="lightgreen" stroke="black" points="667.5,-36 531.5,-36 531.5,-0 667.5,-0 667.5,-36"/>
<text text-anchor="middle" x="599.5" y="-14.3" font-family="Times,serif" font-size="14.00">processTestResources</text>
</g>
<!-- testClasses&#45;&gt;processTestResources -->
<g id="edge7" class="edge"><title>testClasses&#45;&gt;processTestResources</title>
<path fill="none" stroke="black" d="M434.835,-61.9696C459.112,-55.4476 491.657,-46.7042 521.33,-38.7323"/>
<polygon fill="black" stroke="black" points="522.517,-42.0375 531.266,-36.0627 520.701,-35.2772 522.517,-42.0375"/>
</g>
<!-- compileTestJava&#45;&gt;classes -->
<g id="edge8" class="edge"><title>compileTestJava&#45;&gt;classes</title>
<path fill="none" stroke="black" d="M653.719,-87.4453C676.492,-94.0545 702.491,-101.6 722.955,-107.539"/>
<polygon fill="black" stroke="black" points="722.231,-110.973 732.81,-110.399 724.182,-104.251 722.231,-110.973"/>
</g>
<!-- jar&#45;&gt;classes -->
<g id="edge11" class="edge"><title>jar&#45;&gt;classes</title>
<path fill="none" stroke="black" d="M626.675,-325.162C648.158,-323.107 678.028,-316.917 697,-299 740.247,-258.159 753.328,-185.885 757.285,-146.141"/>
<polygon fill="black" stroke="black" points="760.78,-146.344 758.159,-136.079 753.806,-145.738 760.78,-146.344"/>
</g>
<!-- uploadArchives -->
<g id="node10" class="node"><title>uploadArchives</title>
<polygon fill="lightgreen" stroke="black" points="447.5,-344 345.5,-344 345.5,-308 447.5,-308 447.5,-344"/>
<text text-anchor="middle" x="396.5" y="-322.3" font-family="Times,serif" font-size="14.00">uploadArchives</text>
</g>
<!-- uploadArchives&#45;&gt;jar -->
<g id="edge10" class="edge"><title>uploadArchives&#45;&gt;jar</title>
<path fill="none" stroke="black" d="M447.702,-326C483.222,-326 530.035,-326 562.023,-326"/>
<polygon fill="black" stroke="black" points="562.265,-329.5 572.265,-326 562.265,-322.5 562.265,-329.5"/>
</g>
<!-- installDist -->
<g id="node13" class="node"><title>installDist</title>
<polygon fill="lightgreen" stroke="black" points="432.5,-290 360.5,-290 360.5,-254 432.5,-254 432.5,-290"/>
<text text-anchor="middle" x="396.5" y="-268.3" font-family="Times,serif" font-size="14.00">installDist</text>
</g>
<!-- installDist&#45;&gt;jar -->
<g id="edge15" class="edge"><title>installDist&#45;&gt;jar</title>
<path fill="none" stroke="black" d="M432.512,-281.406C468.906,-291.184 525.596,-306.414 562.392,-316.299"/>
<polygon fill="black" stroke="black" points="561.644,-319.722 572.21,-318.937 563.46,-312.962 561.644,-319.722"/>
</g>
<!-- startScripts -->
<g id="node14" class="node"><title>startScripts</title>
<polygon fill="lightgreen" stroke="black" points="638,-290 561,-290 561,-254 638,-254 638,-290"/>
<text text-anchor="middle" x="599.5" y="-268.3" font-family="Times,serif" font-size="14.00">startScripts</text>
</g>
<!-- installDist&#45;&gt;startScripts -->
<g id="edge14" class="edge"><title>installDist&#45;&gt;startScripts</title>
<path fill="none" stroke="black" d="M432.512,-272C465.168,-272 514.164,-272 550.467,-272"/>
<polygon fill="black" stroke="black" points="550.819,-275.5 560.819,-272 550.819,-268.5 550.819,-275.5"/>
</g>
<!-- integrationTestClasses -->
<g id="node15" class="node"><title>integrationTestClasses</title>
<polygon fill="orange" stroke="black" points="466,-236 327,-236 327,-200 466,-200 466,-236"/>
<text text-anchor="middle" x="396.5" y="-214.3" font-family="Times,serif" font-size="14.00">integrationTestClasses</text>
</g>
<!-- compileIntegrationTestJava -->
<g id="node16" class="node"><title>compileIntegrationTestJava</title>
<polygon fill="orange" stroke="black" points="683,-182 516,-182 516,-146 683,-146 683,-182"/>
<text text-anchor="middle" x="599.5" y="-160.3" font-family="Times,serif" font-size="14.00">compileIntegrationTestJava</text>
</g>
<!-- integrationTestClasses&#45;&gt;compileIntegrationTestJava -->
<g id="edge16" class="edge"><title>integrationTestClasses&#45;&gt;compileIntegrationTestJava</title>
<path fill="none" stroke="black" d="M464.71,-199.944C482.98,-195.035 502.906,-189.682 521.665,-184.642"/>
<polygon fill="black" stroke="black" points="522.604,-188.014 531.354,-182.039 520.788,-181.254 522.604,-188.014"/>
</g>
<!-- processIntegrationTestResources -->
<g id="node17" class="node"><title>processIntegrationTestResources</title>
<polygon fill="orange" stroke="black" points="697,-236 502,-236 502,-200 697,-200 697,-236"/>
<text text-anchor="middle" x="599.5" y="-214.3" font-family="Times,serif" font-size="14.00">processIntegrationTestResources</text>
</g>
<!-- integrationTestClasses&#45;&gt;processIntegrationTestResources -->
<g id="edge17" class="edge"><title>integrationTestClasses&#45;&gt;processIntegrationTestResources</title>
<path fill="none" stroke="black" d="M466.111,-218C474.366,-218 482.943,-218 491.582,-218"/>
<polygon fill="black" stroke="black" points="491.738,-221.5 501.738,-218 491.738,-214.5 491.738,-221.5"/>
</g>
<!-- integrationTest&#45;&gt;installDist -->
<g id="edge19" class="edge"><title>integrationTest&#45;&gt;installDist</title>
<path fill="none" stroke="black" d="M291.252,-252.176C310.1,-255.76 331.599,-259.848 350.158,-263.378"/>
<polygon fill="black" stroke="black" points="349.652,-266.844 360.13,-265.274 350.96,-259.967 349.652,-266.844"/>
</g>
<!-- integrationTest&#45;&gt;integrationTestClasses -->
<g id="edge18" class="edge"><title>integrationTest&#45;&gt;integrationTestClasses</title>
<path fill="none" stroke="black" d="M291.252,-235.09C299.494,-233.739 308.243,-232.304 317.031,-230.864"/>
<polygon fill="black" stroke="black" points="317.643,-234.31 326.945,-229.238 316.511,-227.402 317.643,-234.31"/>
</g>
</g>
</svg>
